<svg xmlns="http://www.w3.org/2000/svg"
 xmlns:xlink="http://www.w3.org/1999/xlink"
 width="1192px" height="1066px"  viewBox="0 0 1192 1066">
<path fill-rule="evenodd"  fill="#80b7b3"
 d="M189.63611,1004.692 C189.63611,1004.692 M678.24695,492.03986 C684.10486,486.1819 693.60223,486.1819 699.4601,492.03986 C705.318,497.89752 705.318,507.39508 699.4601,513.25275 C693.60223,519.11084 684.10486,519.11084 678.24695,513.25275 C672.3891,507.39508 672.3891,497.89752 678.24695,492.03986 ZM4.636139,1064.6921 C4.636139,1064.6921 M780.24695,263.03964 C786.1048,257.18198 795.60223,257.18198 801.4602,263.03964 C807.31805,268.8976 807.31805,278.39496 801.4602,284.25293 C795.60223,290.1109 786.1048,290.1109 780.24695,284.25293 C774.3891,278.39496 774.3891,268.8976 780.24695,263.03964 Z"/>
</svg>